<svg id="Layer_1" data-name="Layer 1" xmlns="http://www.w3.org/2000/svg" xmlns:xlink="http://www.w3.org/1999/xlink" viewBox="0 0 466.74 235.85"><defs><style>.cls-1{fill:url(#linear-gradient);}.cls-2{fill:url(#linear-gradient-2);}.cls-3{fill:url(#linear-gradient-3);}.cls-4{fill:url(#linear-gradient-4);}.cls-5{fill:url(#linear-gradient-5);}.cls-6{fill:url(#linear-gradient-6);}.cls-7{opacity:0.3;}.cls-8{fill:url(#linear-gradient-7);}.cls-9{fill:url(#linear-gradient-8);}.cls-10{fill:url(#linear-gradient-9);}.cls-11{fill:url(#linear-gradient-10);}.cls-12{fill:url(#linear-gradient-11);}.cls-13{fill:url(#linear-gradient-12);}.cls-14{fill:url(#linear-gradient-13);}.cls-15{fill:url(#linear-gradient-14);}.cls-16{fill:url(#linear-gradient-15);}.cls-17{fill:url(#linear-gradient-16);}.cls-18{fill:url(#linear-gradient-17);}.cls-19{fill:url(#linear-gradient-18);}.cls-20{fill:url(#linear-gradient-19);}.cls-21{fill:url(#linear-gradient-20);}.cls-22{fill:url(#linear-gradient-21);}.cls-23{fill:url(#linear-gradient-22);}.cls-24{fill:url(#linear-gradient-23);}.cls-25{fill:url(#linear-gradient-24);}.cls-26{fill:url(#linear-gradient-25);}.cls-27{fill:url(#linear-gradient-26);}.cls-28{fill:url(#linear-gradient-27);}.cls-29{fill:url(#linear-gradient-28);}.cls-30{fill:url(#linear-gradient-29);}.cls-31{fill:url(#linear-gradient-30);}.cls-32{fill:url(#linear-gradient-31);}.cls-33{fill:url(#linear-gradient-32);}.cls-34{fill:url(#linear-gradient-33);}.cls-35{fill:url(#linear-gradient-34);}.cls-36{fill:url(#linear-gradient-35);}.cls-37{fill:url(#linear-gradient-36);}.cls-38{fill:url(#linear-gradient-37);}.cls-39{fill:url(#linear-gradient-38);}.cls-40{fill:url(#linear-gradient-39);}.cls-41{fill:url(#linear-gradient-40);}.cls-42{fill:url(#linear-gradient-41);}.cls-43{fill:url(#linear-gradient-42);}.cls-44{fill:url(#linear-gradient-43);}.cls-45{fill:url(#linear-gradient-44);}.cls-46{fill:url(#linear-gradient-45);}.cls-47{fill:url(#linear-gradient-46);}.cls-48{fill:url(#linear-gradient-47);}.cls-49{fill:url(#linear-gradient-48);}.cls-50{fill:url(#linear-gradient-49);}.cls-51{fill:url(#linear-gradient-50);}.cls-52{fill:url(#linear-gradient-51);}.cls-53{fill:url(#linear-gradient-52);}.cls-54{fill:url(#linear-gradient-53);}.cls-55{fill:url(#linear-gradient-54);}.cls-56{fill:url(#linear-gradient-55);}.cls-57{fill:url(#linear-gradient-56);}.cls-58{fill:url(#linear-gradient-57);}.cls-59{fill:url(#linear-gradient-58);}.cls-60{fill:#fff;}.cls-61{fill:url(#linear-gradient-59);}.cls-62{fill:url(#linear-gradient-60);}.cls-63{fill:url(#linear-gradient-61);}.cls-64{fill:url(#linear-gradient-62);}.cls-65{fill:url(#linear-gradient-63);}.cls-66{fill:url(#linear-gradient-64);}.cls-67{fill:url(#linear-gradient-65);}.cls-68{fill:url(#linear-gradient-66);}.cls-69{fill:url(#linear-gradient-67);}.cls-70{fill:url(#linear-gradient-68);}.cls-71{fill:url(#linear-gradient-69);}.cls-72{fill:url(#linear-gradient-70);}.cls-73{fill:#e73d25;}.cls-74{fill:#f4f4f4;}.cls-75{fill:#8dafe3;}.cls-76{fill:#d5e5fd;}.cls-77{fill:#f9b09f;}.cls-78{fill:url(#linear-gradient-71);}.cls-79{fill:url(#linear-gradient-72);}.cls-80{fill:url(#linear-gradient-73);}.cls-81{fill:url(#linear-gradient-74);}.cls-82{fill:url(#linear-gradient-75);}.cls-83{fill:url(#linear-gradient-76);}.cls-84{fill:url(#linear-gradient-77);}.cls-85{fill:url(#linear-gradient-78);}.cls-86{fill:#bdd3f2;}.cls-87{fill:url(#linear-gradient-79);}.cls-88{fill:url(#linear-gradient-80);}.cls-89{fill:url(#linear-gradient-81);}.cls-90{fill:url(#linear-gradient-82);}.cls-91{fill:url(#linear-gradient-83);}.cls-92{fill:url(#linear-gradient-84);}.cls-93{fill:url(#linear-gradient-85);}.cls-94{fill:url(#linear-gradient-86);}.cls-95{fill:url(#linear-gradient-87);}.cls-96{fill:url(#linear-gradient-88);}.cls-97{fill:#3934e7;}.cls-98{fill:#f1f2f2;}.cls-99{fill:#dc4e6f;}.cls-100{fill:url(#linear-gradient-89);}.cls-101{fill:url(#linear-gradient-90);}.cls-102{fill:url(#linear-gradient-91);}.cls-103{fill:#663bd3;}.cls-104{fill:url(#linear-gradient-92);}.cls-105{fill:url(#linear-gradient-93);}.cls-106{fill:url(#linear-gradient-94);}.cls-107{fill:#935137;}.cls-108{fill:url(#linear-gradient-95);}.cls-109{fill:url(#linear-gradient-96);}.cls-110{fill:url(#linear-gradient-97);}.cls-111{fill:url(#linear-gradient-98);}.cls-112{fill:url(#linear-gradient-99);}.cls-113{fill:url(#linear-gradient-100);}.cls-114{fill:url(#linear-gradient-101);}.cls-115{fill:url(#linear-gradient-102);}.cls-116{fill:#66220f;}.cls-117{fill:#fc6da2;}.cls-118{fill:#4e97e6;}.cls-119{fill:#fa0;}.cls-120{fill:url(#linear-gradient-103);}.cls-121{fill:url(#linear-gradient-104);}.cls-122{fill:url(#linear-gradient-105);}.cls-123{fill:url(#linear-gradient-106);}.cls-124{fill:url(#linear-gradient-107);}.cls-125{fill:url(#linear-gradient-108);}.cls-126{fill:url(#linear-gradient-109);}</style><linearGradient id="linear-gradient" x1="-649.98" y1="3262.32" x2="-542.08" y2="3262.32" gradientTransform="matrix(0.17, 0.99, -0.99, 0.17, 3545.85, 108.49)" gradientUnits="userSpaceOnUse"><stop offset="0" stop-color="#b3e0fd"/><stop offset="0.5" stop-color="#d7ecfd"/><stop offset="1" stop-color="#f0f8ff"/></linearGradient><linearGradient id="linear-gradient-2" x1="-2542.04" y1="-839.21" x2="-2470.95" y2="-910.3" gradientTransform="matrix(0.85, -0.53, 0.53, 0.85, 2754.57, -450.72)" xlink:href="#linear-gradient"/><linearGradient id="linear-gradient-3" x1="-3129.91" y1="203.56" x2="-3188.46" y2="157.13" gradientTransform="translate(3241.97)" xlink:href="#linear-gradient"/><linearGradient id="linear-gradient-4" x1="-3157.3" y1="232.16" x2="-3198.03" y2="197.99" gradientTransform="translate(3241.97)" xlink:href="#linear-gradient"/><linearGradient id="linear-gradient-5" x1="4042.37" y1="232.9" x2="4000.85" y2="198.05" gradientTransform="matrix(-1, 0, 0, 1, 4184.28, 0)" xlink:href="#linear-gradient"/><linearGradient id="linear-gradient-6" x1="3543.9" y1="228.81" x2="3583.14" y2="114.99" gradientTransform="matrix(-1, 0, 0.17, 1, 3654.63, 0)" xlink:href="#linear-gradient"/><linearGradient id="linear-gradient-7" x1="-3136.64" y1="162.5" x2="-3110.83" y2="162.5" gradientTransform="translate(3241.97)" xlink:href="#linear-gradient"/><linearGradient id="linear-gradient-8" x1="-3111.24" y1="182.65" x2="-3053.56" y2="182.65" gradientTransform="translate(3241.97)" xlink:href="#linear-gradient"/><linearGradient id="linear-gradient-9" x1="-3190.77" y1="182.65" x2="-3110.83" y2="182.65" gradientTransform="translate(3241.97)" xlink:href="#linear-gradient"/><linearGradient id="linear-gradient-10" x1="-3131.36" y1="111.03" x2="-3124.1" y2="111.03" gradientTransform="translate(3241.97)" xlink:href="#linear-gradient"/><linearGradient id="linear-gradient-11" x1="-3147.06" y1="129.11" x2="-3127.72" y2="129.11" gradientTransform="translate(3241.97)" xlink:href="#linear-gradient"/><linearGradient id="linear-gradient-12" x1="-3126.55" y1="138.81" x2="-3115.96" y2="138.81" gradientTransform="translate(3241.97)" xlink:href="#linear-gradient"/><linearGradient id="linear-gradient-13" x1="-3137.48" y1="168.69" x2="-3121.19" y2="168.69" gradientTransform="translate(3241.97)" xlink:href="#linear-gradient"/><linearGradient id="linear-gradient-14" x1="-3168.61" y1="144.45" x2="-3167.7" y2="144.45" gradientTransform="translate(3241.97)" xlink:href="#linear-gradient"/><linearGradient id="linear-gradient-15" x1="-3153.5" y1="171.95" x2="-3152.9" y2="171.95" gradientTransform="translate(3241.97)" xlink:href="#linear-gradient"/><linearGradient id="linear-gradient-16" x1="-3174.36" y1="163.78" x2="-3161.96" y2="163.78" gradientTransform="translate(3241.97)" xlink:href="#linear-gradient"/><linearGradient id="linear-gradient-17" x1="-3139.6" y1="196.32" x2="-3137.04" y2="196.32" gradientTransform="translate(3241.97)" xlink:href="#linear-gradient"/><linearGradient id="linear-gradient-18" x1="-3155.43" y1="189.86" x2="-3145.06" y2="189.86" gradientTransform="translate(3241.97)" xlink:href="#linear-gradient"/><linearGradient id="linear-gradient-19" x1="-3088.87" y1="146.8" x2="-3081.89" y2="146.8" gradientTransform="translate(3241.97)" xlink:href="#linear-gradient"/><linearGradient id="linear-gradient-20" x1="-3094.08" y1="169.24" x2="-3086.11" y2="169.24" gradientTransform="translate(3241.97)" xlink:href="#linear-gradient"/><linearGradient id="linear-gradient-21" x1="-3093.41" y1="193.17" x2="-3081.38" y2="193.17" gradientTransform="translate(3241.97)" xlink:href="#linear-gradient"/><linearGradient id="linear-gradient-22" x1="-3160.27" y1="199.46" x2="-3151.3" y2="199.46" gradientTransform="translate(3241.97)" xlink:href="#linear-gradient"/><linearGradient id="linear-gradient-23" x1="-3183.38" y1="187.48" x2="-3173.94" y2="187.48" gradientTransform="translate(3241.97)" xlink:href="#linear-gradient"/><linearGradient id="linear-gradient-24" x1="-3150.65" y1="214.07" x2="-3143.23" y2="214.07" gradientTransform="translate(3241.97)" xlink:href="#linear-gradient"/><linearGradient id="linear-gradient-25" x1="-3069.36" y1="186.39" x2="-3067.04" y2="186.39" gradientTransform="translate(3241.97)" xlink:href="#linear-gradient"/><linearGradient id="linear-gradient-26" x1="-3080.39" y1="202.84" x2="-3079.78" y2="202.84" gradientTransform="translate(3241.97)" xlink:href="#linear-gradient"/><linearGradient id="linear-gradient-27" x1="-3075.29" y1="201.41" x2="-3065.52" y2="201.41" gradientTransform="translate(3241.97)" xlink:href="#linear-gradient"/><linearGradient id="linear-gradient-28" x1="-3118.06" y1="189.48" x2="-3110.13" y2="189.48" gradientTransform="translate(3241.97)" xlink:href="#linear-gradient"/><linearGradient id="linear-gradient-29" x1="798.32" y1="201.45" x2="734.32" y2="150.69" gradientTransform="matrix(-1, 0, 0, 1, 1134.81, 0)" xlink:href="#linear-gradient"/><linearGradient id="linear-gradient-30" x1="668.06" y1="204.8" x2="863.82" y2="204.8" gradientTransform="matrix(-1, 0, 0, 1, 1134.81, 0)" xlink:href="#linear-gradient"/><linearGradient id="linear-gradient-31" x1="-2808.65" y1="48.17" x2="-2886.83" y2="157.72" gradientTransform="translate(3241.97)" xlink:href="#linear-gradient"/><linearGradient id="linear-gradient-32" x1="-2924.06" y1="391.5" x2="-2867.33" y2="334.77" gradientTransform="matrix(0.99, 0.11, -0.11, 0.99, 3271.51, 78.07)" xlink:href="#linear-gradient"/><linearGradient id="linear-gradient-33" x1="-2990.19" y1="161.16" x2="-3033.34" y2="106.59" gradientTransform="translate(3241.97)" xlink:href="#linear-gradient"/><linearGradient id="linear-gradient-34" x1="3765.19" y1="239.47" x2="3824.27" y2="199.96" gradientTransform="matrix(-1, 0, 0, 1, 4040.36, 0)" xlink:href="#linear-gradient"/><linearGradient id="linear-gradient-35" x1="3667.77" y1="222.7" x2="3706.98" y2="208.43" gradientTransform="matrix(-1, 0, 0, 1, 4040.36, 0)" xlink:href="#linear-gradient"/><linearGradient id="linear-gradient-36" x1="-2939.33" y1="735.17" x2="-2990.47" y2="656.97" gradientTransform="matrix(0.98, 0.18, -0.18, 0.98, 3327.31, -27.2)" xlink:href="#linear-gradient"/><linearGradient id="linear-gradient-37" x1="-2838.99" y1="93.71" x2="-2925.18" y2="209.14" gradientTransform="translate(3241.97)" xlink:href="#linear-gradient"/><linearGradient id="linear-gradient-38" x1="-2935.32" y1="164.99" x2="-2845.27" y2="164.99" gradientTransform="translate(3241.97)" xlink:href="#linear-gradient"/><linearGradient id="linear-gradient-39" x1="-2898.27" y1="154.75" x2="-2897.73" y2="154.75" gradientTransform="translate(3241.97)" xlink:href="#linear-gradient"/><linearGradient id="linear-gradient-40" x1="-2903.1" y1="169.88" x2="-2872.39" y2="169.88" gradientTransform="translate(3241.97)" xlink:href="#linear-gradient"/><linearGradient id="linear-gradient-41" x1="-2915.79" y1="190.33" x2="-2901.82" y2="190.33" gradientTransform="translate(3241.97)" xlink:href="#linear-gradient"/><linearGradient id="linear-gradient-42" x1="-2886.72" y1="146.63" x2="-2884.54" y2="146.63" gradientTransform="translate(3241.97)" xlink:href="#linear-gradient"/><linearGradient id="linear-gradient-43" x1="-2877.4" y1="143.77" x2="-2867.75" y2="143.77" gradientTransform="translate(3241.97)" xlink:href="#linear-gradient"/><linearGradient id="linear-gradient-44" x1="-2857.4" y1="111.67" x2="-2855.95" y2="111.67" gradientTransform="translate(3241.97)" xlink:href="#linear-gradient"/><linearGradient id="linear-gradient-45" x1="-2862.91" y1="125.51" x2="-2850.27" y2="125.51" gradientTransform="translate(3241.97)" xlink:href="#linear-gradient"/><linearGradient id="linear-gradient-46" x1="3731.42" y1="238.63" x2="3698.44" y2="25.27" gradientTransform="matrix(-1, 0, 0, 1, 4040.36, 0)" xlink:href="#linear-gradient"/><linearGradient id="linear-gradient-47" x1="-2937.6" y1="129.24" x2="-2903.82" y2="129.24" gradientTransform="translate(3241.97)" xlink:href="#linear-gradient"/><linearGradient id="linear-gradient-48" x1="-2923.01" y1="105.93" x2="-2895.58" y2="105.93" gradientTransform="translate(3241.97)" xlink:href="#linear-gradient"/><linearGradient id="linear-gradient-49" x1="-2932.22" y1="92.57" x2="-2920.28" y2="92.57" gradientTransform="translate(3241.97)" xlink:href="#linear-gradient"/><linearGradient id="linear-gradient-50" x1="-2930.9" y1="161.53" x2="-2906.2" y2="161.53" gradientTransform="translate(3241.97)" xlink:href="#linear-gradient"/><linearGradient id="linear-gradient-51" x1="-2947.16" y1="170.72" x2="-2932.08" y2="170.72" gradientTransform="translate(3241.97)" xlink:href="#linear-gradient"/><linearGradient id="linear-gradient-52" x1="-2909.03" y1="41.47" x2="-2896.84" y2="41.47" gradientTransform="translate(3241.97)" xlink:href="#linear-gradient"/><linearGradient id="linear-gradient-53" x1="-2912.19" y1="33.66" x2="-2906.85" y2="33.66" gradientTransform="translate(3241.97)" xlink:href="#linear-gradient"/><linearGradient id="linear-gradient-54" x1="-2918.16" y1="85.02" x2="-2906.56" y2="85.02" gradientTransform="translate(3241.97)" xlink:href="#linear-gradient"/><linearGradient id="linear-gradient-55" x1="-2918.99" y1="59.91" x2="-2913.35" y2="59.91" gradientTransform="translate(3241.97)" xlink:href="#linear-gradient"/><linearGradient id="linear-gradient-56" x1="-2927.9" y1="143.41" x2="-2914.76" y2="143.41" gradientTransform="translate(3241.97)" xlink:href="#linear-gradient"/><linearGradient id="linear-gradient-57" x1="-2935.23" y1="202.68" x2="-2922.14" y2="202.68" gradientTransform="translate(3241.97)" xlink:href="#linear-gradient"/><linearGradient id="linear-gradient-58" x1="234.96" y1="235.69" x2="234.96" y2="85.47" gradientUnits="userSpaceOnUse"><stop offset="0" stop-color="#00bbc5"/><stop offset="1" stop-color="#4f3292"/></linearGradient><linearGradient id="linear-gradient-59" x1="234.18" y1="131.58" x2="234.18" y2="209.33" gradientUnits="userSpaceOnUse"><stop offset="0" stop-color="#f1ce41"/><stop offset="1" stop-color="#e73d25"/></linearGradient><linearGradient id="linear-gradient-60" x1="253.59" y1="159.16" x2="267.53" y2="159.16" gradientTransform="translate(332.25 455.95) rotate(-135)" xlink:href="#linear-gradient-59"/><linearGradient id="linear-gradient-61" x1="248.59" y1="153.27" x2="261.32" y2="153.27" xlink:href="#linear-gradient-59"/><linearGradient id="linear-gradient-62" x1="264.58" y1="166.76" x2="271.72" y2="166.76" xlink:href="#linear-gradient-59"/><linearGradient id="linear-gradient-63" x1="266.76" y1="170.46" x2="276.25" y2="170.46" xlink:href="#linear-gradient-59"/><linearGradient id="linear-gradient-64" x1="234.57" y1="105.44" x2="234.57" y2="116.39" gradientUnits="userSpaceOnUse"><stop offset="0" stop-color="#e73d25"/><stop offset="1" stop-color="#f1ce41"/></linearGradient><linearGradient id="linear-gradient-65" x1="234.57" y1="104.12" x2="234.57" y2="108.87" xlink:href="#linear-gradient-59"/><linearGradient id="linear-gradient-66" x1="200.79" y1="159.55" x2="213.82" y2="159.55" gradientTransform="translate(-54.1 169.56) rotate(-39.78)" xlink:href="#linear-gradient-59"/><linearGradient id="linear-gradient-67" x1="219.26" y1="153.18" x2="206.51" y2="153.18" xlink:href="#linear-gradient-59"/><linearGradient id="linear-gradient-68" x1="197.61" y1="167.3" x2="204.51" y2="167.3" xlink:href="#linear-gradient-59"/><linearGradient id="linear-gradient-69" x1="193.96" y1="170.84" x2="202.99" y2="170.84" xlink:href="#linear-gradient-59"/><linearGradient id="linear-gradient-70" x1="234.07" y1="114.68" x2="234.07" y2="151.83" xlink:href="#linear-gradient-59"/><linearGradient id="linear-gradient-71" x1="857.65" y1="232.29" x2="871.68" y2="232.29" gradientTransform="matrix(-1, 0, 0, 1, 1026.71, 0)" gradientUnits="userSpaceOnUse"><stop offset="0" stop-color="#9946d6"/><stop offset="1" stop-color="#cd7afe"/></linearGradient><linearGradient id="linear-gradient-72" x1="866.79" y1="201.22" x2="911.34" y2="201.22" gradientTransform="matrix(-1, 0, 0, 1, 1026.71, 0)" gradientUnits="userSpaceOnUse"><stop offset="0" stop-color="#5760ff"/><stop offset="1" stop-color="#3a35ea"/></linearGradient><linearGradient id="linear-gradient-73" x1="883.67" y1="200.5" x2="921.58" y2="200.5" xlink:href="#linear-gradient-72"/><linearGradient id="linear-gradient-74" x1="894.04" y1="231.14" x2="909.37" y2="231.14" xlink:href="#linear-gradient-71"/><linearGradient id="linear-gradient-75" x1="899.49" y1="153.94" x2="902.59" y2="134.47" xlink:href="#linear-gradient-71"/><linearGradient id="linear-gradient-76" x1="892.4" y1="171.81" x2="898.28" y2="171.81" xlink:href="#linear-gradient-71"/><linearGradient id="linear-gradient-77" x1="918" y1="171.12" x2="887.51" y2="140.64" xlink:href="#linear-gradient-71"/><linearGradient id="linear-gradient-78" x1="938.32" y1="144.74" x2="911.99" y2="168.46" xlink:href="#linear-gradient-71"/><linearGradient id="linear-gradient-79" x1="905.66" y1="142.45" x2="905.66" y2="121.04" gradientTransform="matrix(-1, 0, 0, 1, 1026.71, 0)" gradientUnits="userSpaceOnUse"><stop offset="0" stop-color="#ea607d"/><stop offset="1" stop-color="#ff9e40"/></linearGradient><linearGradient id="linear-gradient-80" x1="911.5" y1="142.45" x2="911.5" y2="121.04" xlink:href="#linear-gradient-79"/><linearGradient id="linear-gradient-81" x1="969.57" y1="175.88" x2="946.08" y2="175.88" gradientTransform="matrix(-1, 0, 0, 1, 1026.71, 0)" gradientUnits="userSpaceOnUse"><stop offset="0" stop-color="#6c9ed1"/><stop offset="1" stop-color="#b9daf9"/></linearGradient><linearGradient id="linear-gradient-82" x1="992.25" y1="175.03" x2="930.69" y2="115.15" gradientTransform="matrix(-1, 0, 0, 1, 1026.71, 0)" gradientUnits="userSpaceOnUse"><stop offset="0" stop-color="#138c77"/><stop offset="1" stop-color="#35eae7"/></linearGradient><linearGradient id="linear-gradient-83" x1="934.71" y1="232.23" x2="952.28" y2="232.23" gradientTransform="matrix(-1, 0, 0, 1, 1026.71, 0)" gradientUnits="userSpaceOnUse"><stop offset="0" stop-color="#34495e"/><stop offset="1" stop-color="#1d2a36"/></linearGradient><linearGradient id="linear-gradient-84" x1="988.41" y1="177.63" x2="937.98" y2="214.05" xlink:href="#linear-gradient-81"/><linearGradient id="linear-gradient-85" x1="956.7" y1="212.41" x2="969.17" y2="212.41" xlink:href="#linear-gradient-83"/><linearGradient id="linear-gradient-86" x1="969.57" y1="184.71" x2="946.08" y2="184.71" xlink:href="#linear-gradient-81"/><linearGradient id="linear-gradient-87" x1="981.41" y1="133.32" x2="967.03" y2="120.59" xlink:href="#linear-gradient-83"/><linearGradient id="linear-gradient-88" x1="1019.39" y1="147" x2="951.76" y2="167.52" xlink:href="#linear-gradient-82"/><linearGradient id="linear-gradient-89" x1="317.71" y1="202.21" x2="357.78" y2="202.21" gradientUnits="userSpaceOnUse"><stop offset="0" stop-color="#3a35ea"/><stop offset="1" stop-color="#131a8c"/></linearGradient><linearGradient id="linear-gradient-90" x1="342.3" y1="182.36" x2="367.57" y2="182.36" xlink:href="#linear-gradient-89"/><linearGradient id="linear-gradient-91" x1="323.82" y1="202.67" x2="368.47" y2="202.67" xlink:href="#linear-gradient-89"/><linearGradient id="linear-gradient-92" x1="359.28" y1="163.2" x2="295.1" y2="137.89" gradientUnits="userSpaceOnUse"><stop offset="0" stop-color="#ff9e40"/><stop offset="1" stop-color="#fff768"/></linearGradient><linearGradient id="linear-gradient-93" x1="364.34" y1="147.26" x2="332.07" y2="168.89" xlink:href="#linear-gradient-92"/><linearGradient id="linear-gradient-94" x1="348.99" y1="127.73" x2="333.72" y2="118.14" gradientUnits="userSpaceOnUse"><stop offset="0" stop-color="#633225"/><stop offset="1" stop-color="#8c5b4d"/></linearGradient><linearGradient id="linear-gradient-95" x1="386.15" y1="202.21" x2="438.79" y2="202.21" gradientTransform="matrix(1, 0, 0, 1, 0, 0)" xlink:href="#linear-gradient-83"/><linearGradient id="linear-gradient-96" x1="412.62" y1="182.36" x2="437.89" y2="182.36" gradientUnits="userSpaceOnUse"><stop offset="0" stop-color="#131a8c"/><stop offset="1" stop-color="#3a35ea"/></linearGradient><linearGradient id="linear-gradient-97" x1="403.71" y1="201.65" x2="438.82" y2="201.65" gradientTransform="matrix(1, 0, 0, 1, 0, 0)" xlink:href="#linear-gradient-83"/><linearGradient id="linear-gradient-98" x1="403.7" y1="230.86" x2="418.93" y2="230.86" gradientTransform="matrix(1, 0, 0, 1, 0, 0)" xlink:href="#linear-gradient-83"/><linearGradient id="linear-gradient-99" x1="413.94" y1="231.05" x2="429.17" y2="231.05" gradientTransform="matrix(1, 0, 0, 1, 0, 0)" xlink:href="#linear-gradient-83"/><linearGradient id="linear-gradient-100" x1="426.52" y1="156.51" x2="352.59" y2="156.51" gradientUnits="userSpaceOnUse"><stop offset="0" stop-color="#287fff"/><stop offset="1" stop-color="#68defd"/></linearGradient><linearGradient id="linear-gradient-101" x1="411.34" y1="113.15" x2="419.81" y2="127.06" gradientTransform="matrix(1, 0, 0, 1, 0, 0)" xlink:href="#linear-gradient-83"/><linearGradient id="linear-gradient-102" x1="432.89" y1="145.61" x2="393.24" y2="182.27" xlink:href="#linear-gradient-100"/><linearGradient id="linear-gradient-103" x1="294.78" y1="102.43" x2="364.44" y2="102.43" gradientTransform="matrix(-1, 0, 0, 1, 659.21, 0)" xlink:href="#linear-gradient-58"/><linearGradient id="linear-gradient-104" x1="332.2" y1="86.05" x2="337.08" y2="86.05" gradientTransform="matrix(-1, 0, 0, 1, 659.21, 0)" xlink:href="#linear-gradient-58"/><linearGradient id="linear-gradient-105" x1="324.78" y1="87.75" x2="329.66" y2="87.75" gradientTransform="matrix(-1, 0, 0, 1, 659.21, 0)" xlink:href="#linear-gradient-59"/><linearGradient id="linear-gradient-106" x1="347.73" y1="86.29" x2="342.41" y2="88.22" gradientTransform="matrix(-0.37, -0.93, -0.93, 0.37, 523.17, 375.34)" xlink:href="#linear-gradient-59"/><linearGradient id="linear-gradient-107" x1="344.66" y1="87.26" x2="358.63" y2="87.26" gradientTransform="matrix(-0.37, -0.93, -0.93, 0.37, 519.04, 381.44)" gradientUnits="userSpaceOnUse"><stop offset="0" stop-color="#a757a1"/><stop offset="1" stop-color="#3850a2"/></linearGradient><linearGradient id="linear-gradient-108" x1="310.22" y1="99.98" x2="310.22" y2="95.6" gradientTransform="matrix(-1, 0, 0, 1, 659.21, 0)" gradientUnits="userSpaceOnUse"><stop offset="0" stop-color="#393091"/><stop offset="1" stop-color="#f05c2a"/></linearGradient><linearGradient id="linear-gradient-109" x1="158.27" y1="124.37" x2="158.27" y2="97.46" xlink:href="#linear-gradient-59"/></defs><title>Ai-Mentors</title><path class="cls-1" d="M198,20.09A54.76,54.76,0,0,1,208,70.65C212.55,36.59,240.29,6.89,274,0c6,28.21-9.55,59.55-35.64,71.86,17.7-10,31.2-19,51.39-16.07-7.42,42.66-58.37,64-103,67.68C168,103.08,165.06,44.43,198,20.09Z"/><path class="cls-2" d="M125.28,117.81a49,49,0,0,1,33.22,18.57,97.84,97.84,0,0,1-23.15-75.53c13.71,19.49,32.47,9.57,38.35,32.36.84-9.52,5-14.91,11.43-20.21,33.57,43.51,19.59,100-6.77,122.89C166.65,166.81,125.53,163,125.28,117.81Z"/><path class="cls-3" d="M63.2,209.08c-3-2.09-6-4.56-7.3-8s-.39-8,2.9-9.55c2.58-1.26,5.66-.41,8.34.61A71.71,71.71,0,0,1,87,203.71c-7.79-4.58-15.64-9.21-22.31-15.3s-12.18-13.84-14.05-22.68a17.64,17.64,0,0,1,.11-9,9.33,9.33,0,0,1,6.09-6.3c4-1.06,8,1.27,11.25,3.78a70,70,0,0,1,21.29,27.36,46.85,46.85,0,0,1-9-21.23c-.75-4.9-.33-10.72,3.69-13.62s10.14-1.31,14.3,1.69c9.89,7.11,29.27,28.5,35.48,39,22.14,37.38-14.52,39.08-25.74,36.18-4.38-1.13-9-1-13.43-1.72a77.64,77.64,0,0,1-15.48-4.23A76.6,76.6,0,0,1,63.2,209.08Z"/><path class="cls-4" d="M100.77,200.49C85.66,168.36,31.26,160.63,52,205.32c-9.18-8.48-20.87-9.92-24-5.73s-.78,11,4.37,17.78c-21.4-6.77-21.84,6.36-15,12.15-10.51-4.9-9.67,3-17.24,6.07H130.53V197.18C118.23,181.6,94.42,177.68,100.77,200.49Z"/><path class="cls-5" d="M124.23,200.49c15.11-32.13,69.5-39.86,48.81,4.83,9.18-8.48,20.87-9.92,24.05-5.73s.77,11-4.38,17.78c21.41-6.77,21.85,6.36,15,12.15,10.51-4.9,14.57,3,22.15,6.07H94.47V197.18C106.76,181.6,130.58,177.68,124.23,200.49Z"/><path class="cls-6" d="M42.38,161.7c3.75-2.8,9.62-1.82,13.68,1.94l8.8,8.16c1.87,1.73,4.36,0,3.11-2.18-7.71-13.3-12.92-26.88-13.67-41.4-.21-4.07,1.76-7.71,5.4-9.06,7.36-2.72,13.77,5.47,17.76,12.27l.33.56c4.56,7.77,15.78,5.56,14.37-2.84A112.34,112.34,0,0,1,91,98.07c.82-7.29,3.23-15.49,10.43-16.94a26.17,26.17,0,0,1,5.31,0c7.7,1.45,13,9.65,16.31,16.94a132.71,132.71,0,0,1,11.07,40.74c1.18,7.2,10,9.86,12.2.47q1.6-6.74,3.22-13.48a9.07,9.07,0,0,1,7.8-7.1c8.2-1,13,8.47,14.51,16,2.48,12.13,1.74,23.65-.88,35-.51,2.16,2.59,3.91,3.86,2.18l6-8.16c2.75-3.76,8.27-4.74,13-1.94,7.75,4.58,5,13.63,1.34,19.32-11.38,17.55-34,46.46-57.51,54.57H124.24c-26.36-8.11-59-37-76.47-54.57C42.09,175.33,36.23,166.28,42.38,161.7Z"/><g class="cls-7"><path class="cls-8" d="M130.93,235.8a.21.21,0,0,1-.2-.17L105.33,89.44a.2.2,0,0,1,.17-.24.21.21,0,0,1,.24.17l25.4,146.19a.21.21,0,0,1-.17.24Z"/></g><g class="cls-7"><path class="cls-9" d="M130.93,235.8a.24.24,0,0,1-.13-.05.21.21,0,0,1-.05-.26c20.35-35.79,30.48-70.39,31-105.79a.22.22,0,0,1,.21-.21h0a.22.22,0,0,1,.21.21c-.5,35.19-10.49,69.59-30.55,105.13,24.33-18.29,43.83-40.19,56.42-63.39a.21.21,0,1,1,.36.2c-12.75,23.5-32.58,45.67-57.32,64.12A.2.2,0,0,1,130.93,235.8Z"/></g><g class="cls-7"><path class="cls-10" d="M130.93,235.8a.19.19,0,0,1-.1,0c-31.14-18.44-58.66-40.6-79.58-64.09a.22.22,0,0,1,0-.3.22.22,0,0,1,.29,0c20.62,23.16,47.67,45,78.28,63.3-32.32-35.47-54.21-69.81-66.91-104.93a.2.2,0,0,1,.13-.26.2.2,0,0,1,.26.12c12.81,35.41,35,70,67.77,105.82a.21.21,0,0,1-.16.35Z"/></g><g class="cls-7"><path class="cls-11" d="M110.82,120h-.08a.2.2,0,0,1-.11-.27l6.84-17.62a.2.2,0,0,1,.26-.11.2.2,0,0,1,.12.26L111,119.91A.21.21,0,0,1,110.82,120Z"/></g><g class="cls-7"><path class="cls-12" d="M114,138.6a.2.2,0,0,1-.14-.06L95,120a.21.21,0,0,1,.29-.29l18.93,18.55a.22.22,0,0,1,0,.3A.2.2,0,0,1,114,138.6Z"/></g><g class="cls-7"><path class="cls-13" d="M115.62,147.67a.23.23,0,0,1-.11,0,.21.21,0,0,1-.07-.28l10.18-17.3a.21.21,0,0,1,.29-.07.2.2,0,0,1,.07.28l-10.18,17.3A.22.22,0,0,1,115.62,147.67Z"/></g><g class="cls-7"><path class="cls-14" d="M120.57,176.18a.24.24,0,0,1-.14-.05l-15.88-14.57a.21.21,0,1,1,.28-.3l15.88,14.56a.21.21,0,0,1,0,.29A.2.2,0,0,1,120.57,176.18Z"/></g><g class="cls-7"><path class="cls-15" d="M74.06,155.41a.22.22,0,0,1-.21-.2l-.49-21.51a.2.2,0,0,1,.2-.21h0a.2.2,0,0,1,.2.2l.5,21.51a.21.21,0,0,1-.2.21Z"/></g><g class="cls-7"><path class="cls-16" d="M88.86,181.6a.21.21,0,0,1-.21-.2l-.19-18.9a.22.22,0,0,1,.21-.21h0a.21.21,0,0,1,.21.21l.19,18.89A.23.23,0,0,1,88.86,181.6Z"/></g><g class="cls-7"><path class="cls-17" d="M79.8,166.36l-.07,0-12-4.74a.21.21,0,0,1-.12-.27.21.21,0,0,1,.27-.11l12,4.74a.21.21,0,0,1-.08.4Z"/></g><g class="cls-7"><path class="cls-18" d="M104.72,204.44a.2.2,0,0,1-.2-.18l-2.16-15.82a.22.22,0,0,1,.18-.24.22.22,0,0,1,.24.18l2.15,15.83a.2.2,0,0,1-.18.23Z"/></g><g class="cls-7"><path class="cls-19" d="M96.7,193.38a.27.27,0,0,1-.12,0l-10-6.63a.21.21,0,0,1-.06-.29.21.21,0,0,1,.29-.06l10,6.63a.21.21,0,0,1,.06.29A.2.2,0,0,1,96.7,193.38Z"/></g><g class="cls-7"><path class="cls-20" d="M159.87,155.41a.21.21,0,0,1-.19-.13l-6.57-16.81a.21.21,0,0,1,.12-.27.21.21,0,0,1,.27.12l6.56,16.81a.2.2,0,0,1-.11.27Z"/></g><g class="cls-7"><path class="cls-21" d="M155.65,176.18a.21.21,0,0,1-.18-.11l-7.55-13.47a.2.2,0,0,1,.08-.28.2.2,0,0,1,.28.08l7.55,13.47a.2.2,0,0,1-.08.28A.17.17,0,0,1,155.65,176.18Z"/></g><g class="cls-7"><path class="cls-22" d="M148.76,198a.21.21,0,0,1-.12-.37l11.61-9.22a.2.2,0,0,1,.29,0,.21.21,0,0,1,0,.29l-11.62,9.22A.17.17,0,0,1,148.76,198Z"/></g><g class="cls-7"><path class="cls-23" d="M90.46,208.11a.21.21,0,0,1-.19-.11l-8.55-16.9a.21.21,0,1,1,.37-.19l8.55,16.9a.21.21,0,0,1-.09.28A.15.15,0,0,1,90.46,208.11Z"/></g><g class="cls-7"><path class="cls-24" d="M67.82,188.61h0l-9-1.86a.22.22,0,0,1-.16-.25.21.21,0,0,1,.24-.16l9,1.87a.21.21,0,0,1,.16.24A.2.2,0,0,1,67.82,188.61Z"/></g><g class="cls-7"><path class="cls-25" d="M98.53,214.28h-7a.21.21,0,0,1-.21-.21.2.2,0,0,1,.21-.2h7a.2.2,0,0,1,.21.2A.21.21,0,0,1,98.53,214.28Z"/></g><g class="cls-7"><path class="cls-26" d="M172.81,195.14h0a.2.2,0,0,1-.19-.22l1.92-17.08a.2.2,0,0,1,.23-.18.21.21,0,0,1,.18.23L173,195A.22.22,0,0,1,172.81,195.14Z"/></g><g class="cls-7"><path class="cls-27" d="M161.79,208.11h0a.2.2,0,0,1-.2-.21l.19-10.12a.22.22,0,0,1,.21-.2h0a.2.2,0,0,1,.2.21L162,207.91A.22.22,0,0,1,161.79,208.11Z"/></g><g class="cls-7"><path class="cls-28" d="M166.88,202.39a.2.2,0,0,1-.2-.17.2.2,0,0,1,.17-.24l9.36-1.55a.22.22,0,0,1,.24.17.21.21,0,0,1-.17.24l-9.37,1.55Z"/></g><g class="cls-7"><path class="cls-29" d="M124.11,196.53a.19.19,0,0,1-.1,0,.2.2,0,0,1-.08-.28l7.52-13.67a.2.2,0,0,1,.28-.08.21.21,0,0,1,.09.28l-7.53,13.67A.21.21,0,0,1,124.11,196.53Z"/></g><path class="cls-30" d="M391,202.46c3-2.09,6-4.56,7.3-8s.38-8-2.9-9.55c-2.58-1.26-5.66-.42-8.35.61a71.66,71.66,0,0,0-19.83,11.54c7.78-4.58,15.64-9.21,22.31-15.3s12.18-13.84,14-22.68a17.75,17.75,0,0,0-.1-9,9.35,9.35,0,0,0-6.1-6.3c-4-1.06-8,1.27-11.25,3.78a70.05,70.05,0,0,0-21.28,27.36,46.84,46.84,0,0,0,9-21.23c.75-4.9.33-10.72-3.69-13.62s-10.13-1.31-14.3,1.69c-9.88,7.11-13.9,19.6-18.92,30.7a132.83,132.83,0,0,1-26,38c-1.61,1.64-3.37,4.07-2.11,6a4.93,4.93,0,0,0,3.25,1.67,74.1,74.1,0,0,0,34.05-1.24c4.39-1.14,9-1,13.43-1.72A77.73,77.73,0,0,0,375.06,211,76.6,76.6,0,0,0,391,202.46Z"/><path class="cls-31" d="M361.06,200.45c15.11-32.13,69.51-39.86,48.82,4.83,9.18-8.48,20.87-9.92,24-5.73s.78,11-4.37,17.79c21.4-6.77,21.84,6.35,15,12.14,10.51-4.9,14.58,3,22.15,6.07H271V197.14C351.76,177.64,367.41,177.64,361.06,200.45Z"/><path class="cls-32" d="M431.73,120.91a47.77,47.77,0,0,0-44.19,8.29c26.13-14.72,41.22-46.8,35.91-76.32-24.8,4.27-45.17,27-46.7,52.11a54.54,54.54,0,0,0-1.36-51.21c-25.87,29.33-41.19,75.28-23.89,129.43C377.35,154.66,422.3,161,431.73,120.91Z"/><path class="cls-33" d="M322.72,103.32A47,47,0,0,1,336.9,137a94.08,94.08,0,0,1,27.15-70.92c-1.28,19,11.65,36.69,2.62,57.44,6.1-11,17.43-15.8,27.91-18.78-.3,52.84-26.83,77.32-60.37,79.08-1.38-23.06-12.13-37.81-13.42-47.64A86.83,86.83,0,0,1,322.72,103.32Z"/><path class="cls-34" d="M226.3,176.36c-8.43-8.06-40.77-41.8-30.74-84.52,1.54-6.55,8.59-13.52,15.33-11.75,17.63,4.64,28.44,32.69,56.94,48,30.65,16.45,34.86,63.21,31.61,101.59H258.8C257.51,206.24,234.7,184.36,226.3,176.36Z"/><path class="cls-35" d="M213,183.25c-3.32-.61-7.56,0-8.53,3.09-1.11,3.62,3.12,6.8,6.66,8.56l21.19,10.53c3.11,1.55,3.09,1.78-.16.74a61.48,61.48,0,0,0-22.73-2.84c-3.62.24-8.06,1.76-8,5.4s4.48,5.59,8.07,6.52c10.29,2.66,22.74,2.52,18.26,3s-7.95,6.25-4.73,9.64a9.65,9.65,0,0,0,4.63,2.29c9.93,2.73,30,5.42,52.88,5.42C277.34,224.24,253.08,190.6,213,183.25Z"/><path class="cls-36" d="M382.53,187.77c3-.56,6.91,0,8.15,2.82,1.42,3.31-2.09,6.21-5.13,7.82L367.38,208c-2.67,1.41-2.62,1.62.23.67a53.73,53.73,0,0,1,20.45-2.6c3.33.23,7.57,1.61,7.94,4.94s-3.47,5.11-6.64,6c-9.1,2.43-20.48,2.15-16.35,2.72,19.39,2.64,23.76,8.16,22.93,15.85H297.66C300.86,222.08,348.46,194.16,382.53,187.77Z"/><path class="cls-37" d="M308.9,197.23c-.9-7.7,3.65-35.39,7.52-41.94,30.1-50.9-19.75-73.07-13.35-128.18.88-7.53-6.13-16.32-13.45-16.1-6.45.2-9.81,7.9-9.41,14.5s3.12,13.13,2.81,19.7c-.42,9.11-6.43,16.45-11.72,23.52s-18.21,21-10.75,39c9.76,23.51,5.68,33.63.74,44.76-4.27,9.62,3.12,22,2.84,32.91-.15,5.92-5.54,12.49-3.71,18.24,4.45,14,11.26,28.93,26.59,31.5C307.21,238.52,310.58,211.72,308.9,197.23Z"/><path class="cls-38" d="M322.12,174.32c10.12-8.27,1.6-27.26,9.78-37.45,7.92-9.86,25.24-4.68,35.82-11.67,7.08-4.68,9.57-13.68,13.54-21.21s12.13-14.58,20.44-11.35c7.44,2.89,10.16,12.86,7.57,20.06s-8.85,12.21-14.9,16.79S382,138.87,379,145.93c-2.73,6.56-2.19,14.25-4.62,20.94-9.63,26.43-43.72,25.75-38.51,68.71H279.41C279.41,190.33,317.78,177.86,322.12,174.32Z"/><g class="cls-7"><path class="cls-39" d="M306.86,226.42l-.09,0a.2.2,0,0,1-.1-.27c13-29.63,34.79-55.26,55.85-80,12.31-14.47,23.93-28.14,33.8-42.44a.21.21,0,0,1,.34.24c-9.88,14.31-21.51,28-33.82,42.47-21,24.76-42.81,50.36-55.8,79.94A.21.21,0,0,1,306.86,226.42Z"/></g><g class="cls-7"><path class="cls-40" d="M343.9,168.9h0a.21.21,0,0,1-.21-.2l.13-27.91a.22.22,0,0,1,.21-.2h0a.21.21,0,0,1,.21.21l-.13,27.9A.2.2,0,0,1,343.9,168.9Z"/></g><g class="cls-7"><path class="cls-41" d="M339.07,175a.21.21,0,0,1-.19-.14.2.2,0,0,1,.13-.26l30.29-9.78a.22.22,0,0,1,.27.14.22.22,0,0,1-.14.26L339.14,175Z"/></g><g class="cls-7"><path class="cls-42" d="M326.38,192.13a.2.2,0,0,1-.2-.16.2.2,0,0,1,.16-.25l13.55-3.19a.21.21,0,1,1,.09.41l-13.55,3.19Z"/></g><g class="cls-7"><path class="cls-43" d="M355.46,155h0a.21.21,0,0,1-.18-.23L357,138.49a.18.18,0,0,1,.22-.18.21.21,0,0,1,.19.23l-1.77,16.23A.2.2,0,0,1,355.46,155Z"/></g><g class="cls-7"><path class="cls-44" d="M374,144h-9.24a.21.21,0,1,1,0-.41H374a.21.21,0,1,1,0,.41Z"/></g><g class="cls-7"><path class="cls-45" d="M384.77,119.77h0a.21.21,0,0,1-.2-.22l1.05-15.79a.19.19,0,0,1,.22-.2.21.21,0,0,1,.19.22l-1,15.8A.21.21,0,0,1,384.77,119.77Z"/></g><g class="cls-7"><path class="cls-46" d="M379.27,126.64a.21.21,0,0,1-.21-.17.22.22,0,0,1,.18-.24l12.22-1.86a.21.21,0,0,1,.06.41l-12.22,1.86Z"/></g><path class="cls-47" d="M285,157.42c15.41-25.44,6.47-53.68,8.32-66.51,1.52-10.49,13.18-15.43,19.12-24C317,60.3,318,51.71,318.94,43.51s2.33-16.79,7.5-23,15.5-8.8,22.07-3.26c5.55,4.67,6.21,13.05,4.05,19.59s-6.55,12-9.71,18.07-5.07,13.57-2,20.09c3.5,7.48,12.63,11.76,15,19.61,2.23,7.29-2.28,14.42-7,20s-6.08,11.54-5.89,19c.28,11.25,9.13,21.27,6.29,32s-14.87,14.88-18.43,27.22c-2.44,8.44-2.44,23.73,17.07,42.74l-68.51,0C279.41,191.7,279.27,166.8,285,157.42Z"/><g class="cls-7"><path class="cls-48" d="M304.58,232.1h0a.21.21,0,0,1-.19-.23c6.89-76,17.49-141.24,33.37-205.33a.21.21,0,1,1,.4.1c-15.87,64.07-26.47,129.3-33.36,205.27A.21.21,0,0,1,304.58,232.1Z"/></g><g class="cls-7"><path class="cls-49" d="M319.17,117.24a.24.24,0,0,1-.16-.07.22.22,0,0,1,0-.3l27-22.2a.21.21,0,0,1,.26.32l-27,22.2A.17.17,0,0,1,319.17,117.24Z"/></g><g class="cls-7"><path class="cls-50" d="M321.48,104a.21.21,0,0,1-.18-.12L309.77,81.48a.21.21,0,0,1,.09-.28.2.2,0,0,1,.28.09l11.53,22.38a.21.21,0,0,1-.09.28A.19.19,0,0,1,321.48,104Z"/></g><g class="cls-7"><path class="cls-51" d="M311.28,170.49a.21.21,0,0,1-.17-.08.2.2,0,0,1,.05-.29l24.28-17.51a.22.22,0,0,1,.29,0,.2.2,0,0,1-.05.29l-24.28,17.5A.19.19,0,0,1,311.28,170.49Z"/></g><g class="cls-7"><path class="cls-52" d="M309.68,183.34a.21.21,0,0,1-.18-.11l-14.66-24.81a.21.21,0,0,1,.07-.29.21.21,0,0,1,.29.08L309.86,183a.21.21,0,0,1-.07.29A.23.23,0,0,1,309.68,183.34Z"/></g><g class="cls-7"><path class="cls-53" d="M333.15,46.88a.2.2,0,0,1-.16-.07.21.21,0,0,1,0-.29l11.77-10.41a.2.2,0,0,1,.29,0,.21.21,0,0,1,0,.29L333.28,46.83A.15.15,0,0,1,333.15,46.88Z"/></g><g class="cls-7"><path class="cls-54" d="M334.91,39.33a.21.21,0,0,1-.19-.13l-4.93-10.91a.21.21,0,0,1,.38-.17L335.1,39a.22.22,0,0,1-.11.28Z"/></g><g class="cls-7"><path class="cls-55" d="M324,90.32a.19.19,0,0,1-.15-.07.2.2,0,0,1,0-.29l11.18-10.19a.2.2,0,0,1,.29,0,.21.21,0,0,1,0,.29L324.15,90.26A.2.2,0,0,1,324,90.32Z"/></g><g class="cls-7"><path class="cls-56" d="M328.41,65.86a.21.21,0,0,1-.19-.12L323,54.26a.21.21,0,0,1,.1-.28.21.21,0,0,1,.27.1l5.23,11.49a.21.21,0,0,1-.1.28Z"/></g><g class="cls-7"><path class="cls-57" d="M314.28,148.51a.21.21,0,0,1-.17-.08.21.21,0,0,1,0-.29l12.72-9.79a.21.21,0,0,1,.26.33l-12.73,9.79A.17.17,0,0,1,314.28,148.51Z"/></g><g class="cls-7"><path class="cls-58" d="M307,207.77a.19.19,0,0,1-.17-.08.21.21,0,0,1,0-.29l12.67-9.76a.2.2,0,0,1,.29,0,.21.21,0,0,1,0,.29l-12.67,9.76A.19.19,0,0,1,307,207.77Z"/></g><rect class="cls-59" x="186.45" y="85.47" width="97.02" height="150.22" rx="10.87" ry="10.87"/><path class="cls-60" d="M254.31,90.18H222.13a.83.83,0,0,1-.83-.83h0a.83.83,0,0,1,.83-.83h32.18a.83.83,0,0,1,.83.83h0A.83.83,0,0,1,254.31,90.18Z"/><path class="cls-60" d="M218.57,89.35a1.9,1.9,0,1,1-1.89-1.9A1.89,1.89,0,0,1,218.57,89.35Z"/><rect class="cls-60" x="191.06" y="92.64" width="86.77" height="134.34" rx="7.99" ry="7.99"/><path class="cls-61" d="M255.93,170.46c0,21.47-13.6,38.87-21.86,38.87s-21.64-17.4-21.64-38.87,9.57-38.88,21.64-38.88S255.93,149,255.93,170.46Z"/><rect class="cls-62" x="258.94" y="150.92" width="3.24" height="16.48" transform="translate(557.35 87.46) rotate(135)"/><path class="cls-63" d="M254.41,158.35l-4.44-4a4.14,4.14,0,0,1-.32-5.85h0a4.15,4.15,0,0,1,5.85-.32l4.45,4a4.17,4.17,0,0,1,.32,5.86h0A4.16,4.16,0,0,1,254.41,158.35Z"/><path class="cls-64" d="M270.64,169.5h0a3.34,3.34,0,0,0,.23-4.69l-.52-.56a3.32,3.32,0,0,0-4.68-.24h0a3.33,3.33,0,0,0-.23,4.69l.51.57A3.34,3.34,0,0,0,270.64,169.5Z"/><circle class="cls-65" cx="271.51" cy="170.46" r="4.74"/><polygon class="cls-66" points="233.3 116.39 234.62 105.44 235.84 116.39 233.3 116.39"/><path class="cls-67" d="M237,106.49a2.38,2.38,0,1,1-2.38-2.37A2.38,2.38,0,0,1,237,106.49Z"/><path class="cls-60" d="M245.63,150.28h0c0,3.39-5.2,6.14-11.61,6.14s-11.62-2.75-11.62-6.14a.49.49,0,0,1,0-.12A34.74,34.74,0,0,0,234,151.83,37.15,37.15,0,0,0,245.63,150.28Z"/><rect class="cls-68" x="205.69" y="151.31" width="3.24" height="16.48" transform="translate(150.06 -95.71) rotate(39.78)"/><path class="cls-69" d="M213.41,158.26l4.46-4a4.14,4.14,0,0,0,.35-5.85h0a4.15,4.15,0,0,0-5.85-.35l-4.47,4a4.15,4.15,0,0,0-.34,5.85h0A4.15,4.15,0,0,0,213.41,158.26Z"/><path class="cls-70" d="M198.88,170.29h0a3.1,3.1,0,0,0,4.33-.67l.71-1a3.11,3.11,0,0,0-.68-4.33h0a3.1,3.1,0,0,0-4.33.67l-.71,1A3.11,3.11,0,0,0,198.88,170.29Z"/><path class="cls-71" d="M203,170.84a4.52,4.52,0,1,1-4.51-4.52A4.52,4.52,0,0,1,203,170.84Z"/><path class="cls-72" d="M258.28,133.15c0,7.89-3.21,13.56-11.59,16.62-6.52,3.15-18.37,2-22.91,1-8.22-3.11-13.92-9.83-13.92-17.63,0-10.75,10.84-18.47,24.21-18.47S258.28,122.4,258.28,133.15Z"/><path class="cls-60" d="M243.61,143.16H225.53a5.89,5.89,0,0,1-5.89-5.89v-4.81c0-3.26,1.91-5.23,5.31-5.23,1.47,0,5.7,1,9.29,1a36.61,36.61,0,0,0,7.91-1.21c3.7-.78,7.54,1.19,7.38,4,0,.44,0,1,0,1.47v4.81A5.89,5.89,0,0,1,243.61,143.16Z"/><path class="cls-73" d="M229.65,135c0,1.5-.68,2.71-1.52,2.71s-1.52-1.21-1.52-2.71.68-2.71,1.52-2.71S229.65,133.54,229.65,135Z"/><path class="cls-73" d="M240.65,135c0,1.5-.66,2.71-1.47,2.71s-1.46-1.21-1.46-2.71.66-2.71,1.46-2.71S240.65,133.54,240.65,135Z"/><path class="cls-73" d="M234.17,141.1a9.41,9.41,0,0,1-3.84-.81.19.19,0,0,1-.09-.26.2.2,0,0,1,.27-.09,9,9,0,0,0,7.12,0,.21.21,0,0,1,.27.1.2.2,0,0,1-.1.27A8.43,8.43,0,0,1,234.17,141.1Z"/><path class="cls-60" d="M244.53,176.66H224.71a3.37,3.37,0,0,1-3.36-3.36V167a3.93,3.93,0,0,1,3.92-3.92h19a3.47,3.47,0,0,1,3.46,3.46v6.88A3.26,3.26,0,0,1,244.53,176.66Zm-7.28-10.33h0a.42.42,0,0,0-.42-.42H224.57a.42.42,0,0,0-.42.42h0a.42.42,0,0,0,.42.43h12.26A.42.42,0,0,0,237.25,166.33Zm8.38,0h0a.42.42,0,0,0-.43-.42h-5.91a.42.42,0,0,0-.42.42h0a.42.42,0,0,0,.42.43h5.91A.43.43,0,0,0,245.63,166.33Zm-14.13,2.79h0a.42.42,0,0,0-.42-.42h-6.51a.42.42,0,0,0-.42.42h0a.42.42,0,0,0,.42.42h6.51A.42.42,0,0,0,231.5,169.12Zm14.13,0h0a.42.42,0,0,0-.43-.42H233.64a.42.42,0,0,0-.43.42h0a.42.42,0,0,0,.43.42H245.2A.42.42,0,0,0,245.63,169.12Zm-1.11,3.4h0a.42.42,0,0,0-.42-.42H224.91a.42.42,0,0,0-.42.42h0a.42.42,0,0,0,.42.42H244.1A.42.42,0,0,0,244.52,172.52Z"/><path class="cls-74" d="M101.61,194.21l-6.29,41.6Z"/><polygon class="cls-75" points="100.48 194.04 95.01 235.76 95.63 235.85 102.73 194.38 100.48 194.04"/><path class="cls-74" d="M112.59,194.21l-6.28,41.6Z"/><polygon class="cls-75" points="111.46 194.04 106 235.76 106.62 235.85 113.72 194.38 111.46 194.04"/><path class="cls-74" d="M140.72,194.21l6.28,41.6Z"/><polygon class="cls-75" points="139.59 194.38 146.69 235.85 147.31 235.76 141.84 194.04 139.59 194.38"/><path class="cls-74" d="M129.73,194.21l6.29,41.6Z"/><polygon class="cls-75" points="128.61 194.38 135.71 235.85 136.33 235.76 130.86 194.04 128.61 194.38"/><path class="cls-76" d="M111,147H100.26c-6.16,0-8.71,4.78-8.21,11.74l7.35,35.32H128l-6.68-35.32C120,152.36,117.17,147,111,147Z"/><path class="cls-75" d="M101.29,147h-1c-6.16,0-8.71,4.78-8.21,11.74l7.35,35.32h2.51l-8.45-35.32C92.73,151.78,95.14,147,101.29,147Z"/><path class="cls-76" d="M143.61,195.47h-34a1.41,1.41,0,1,1,0-2.82h34a1.41,1.41,0,0,1,0,2.82Z"/><path class="cls-75" d="M115.93,195.47H100.81a1.41,1.41,0,0,1,0-2.82h15.12a1.41,1.41,0,0,1,0,2.82Z"/><polygon class="cls-77" points="154.13 221.47 156.32 230.59 160.42 229.81 158.91 220.58 154.13 221.47"/><path class="cls-78" d="M166.42,233.37c-1.42-.19-5.07-1.94-5.69-4.61h-5.42c-.51,2.09-.19,4.55-.19,7.05h2.68l.67-1.73,1.46,1.73h9.12C169.05,233.32,167.34,233.5,166.42,233.37Z"/><path class="cls-79" d="M116.57,177.09,141,178.72c6.83.6,11,1.87,12.74,6.43,1.34,8.34,3.56,20.09,6.19,39l-5.38,1.22c-2.87-14.51-9.67-23.93-10.47-32.55H125.34C121.7,192.79,112,181.94,116.57,177.09Z"/><polygon class="cls-77" points="127.36 222.52 125.59 229.6 120.97 227.63 122.45 221.49 127.36 222.52"/><path class="cls-80" d="M141.48,182.92c-5.64-4.48-17.4-6-25.89-5.83h-8.21c-3.61,5.85-2.61,15.7,1,15.7h23.67c-5.87,8.26-8.17,18.53-10.5,29.88l6,1.25C133.22,206.86,147.79,187.94,141.48,182.92Z"/><path class="cls-81" d="M121.13,226.48l5.25,2.07c-1.37,3.69,1.34,4.82,2.73,5,.91.12,3.56-.24,3.56,2.25h-8.74a4.59,4.59,0,0,1-2.92-3.95l-1.51,1.07-2.16-1.42A24.59,24.59,0,0,1,121.13,226.48Z"/><path class="cls-82" d="M127.83,149.14c-1.22-2.18-3.69-4.3-5.12-4.3s1.37,11,4.85,31.17c.9,1.47,4.56,2.09,5.09-.29C134.54,167.29,130.68,154.21,127.83,149.14Z"/><path class="cls-83" d="M133.69,166.31l-4.54.15c-.67,4-1,7.49-.52,9.6.27,1.3,2.4,2,4.42.1S134.25,169.81,133.69,166.31Z"/><path class="cls-84" d="M121,144.43H109.6c-6.6,0-5.38,4.55-5.28,5.42a65.12,65.12,0,0,0,2.2,9.92q1.35,4.9,2.71,9.82c.48,1.75-1.42,5.71-2.66,8.8l24-.17a23.69,23.69,0,0,1-2-8.16c0-2.86.64-15.92-3.38-23.34A5.73,5.73,0,0,0,121,144.43Z"/><path class="cls-85" d="M102.93,149.14c.73-2.18,2.46-4.16,3.57-4,1.32.24,2,3,2.32,4.4.91,3.9.63,5.73,1.21,19.27a25.13,25.13,0,0,1,6.14-3.52l0,4.33a20.53,20.53,0,0,1-6,6.65,2.29,2.29,0,0,1-1.12.78l-.07,0a3,3,0,0,1-3.77-1.41C101.44,167.29,101.21,154.21,102.93,149.14Z"/><path class="cls-60" d="M128.13,174.28H116.57c-.82,0-1.31-.51-1.12-1.14l5.25-16.66a1.94,1.94,0,0,1,1.82-1.14h11.57c.81,0,1.31.51,1.11,1.14L130,173.14A2,2,0,0,1,128.13,174.28Z"/><path class="cls-86" d="M116.26,173.14l5.24-16.66a2,2,0,0,1,1.83-1.14h-.81a1.94,1.94,0,0,0-1.82,1.14l-5.25,16.66c-.19.63.3,1.14,1.12,1.14h.8C116.56,174.28,116.06,173.77,116.26,173.14Z"/><path class="cls-77" d="M120.77,170c-1.34,1.18-3.35,1.37-4.23.35-1.75-2-1.89-4.62.22-6.31.67-.54,1.44-1,2.11-1.52,1.35-1.06,1.16.39.55,1.43-.42.73-1.79,1.1-.93,1.71a6.4,6.4,0,0,0,3.05.5C123.67,165.79,123.14,167.9,120.77,170Z"/><path class="cls-77" d="M134.16,164.8c0-.75-.09-1.53-.08-2.26,0-1.49-.83-.67-1.28.25-.27.56-.81,2.22-1.3,2.47a5.18,5.18,0,0,1-2.13.2c-1.92,0-.81,1.57-1.78,3.83-.26.63.94,1,1.72,1C131.5,170.29,134.11,167,134.16,164.8Z"/><path class="cls-87" d="M117.47,144.57h8.93c-4.66-4.71.28-9.68-3.87-16.13l-6.83,1.25Z"/><path class="cls-77" d="M117.91,136.76l-4.66-1.61c.4,1.83,1,9.52,1,9.53.75,1.06,3.21,1.11,4.61.59C119.07,143,118.86,138.94,117.91,136.76Z"/><path class="cls-77" d="M117.83,126c-3.65.2-7,2.78-6.46,7.12.69,5.62,8.57,7.23,9.32,7C124.58,139.17,122.45,125.73,117.83,126Z"/><path class="cls-88" d="M114.58,131.73c.64-.7,8.44-1.9,9-2.75,2.47-4-5.85-6.5-6.75-6.59-5-.47-2.59,1.76-5.18,3a22.22,22.22,0,0,0-2.62,1c-6.57,4.16,1.81,13.38-1.28,18.42h6.58C117,140.37,113.83,132.56,114.58,131.73Z"/><path class="cls-74" d="M29.83,194.21l-6.28,41.6Z"/><polygon class="cls-75" points="28.71 194.04 23.24 235.76 23.86 235.85 30.96 194.38 28.71 194.04"/><path class="cls-74" d="M40.82,194.21l-6.29,41.6Z"/><polygon class="cls-75" points="39.69 194.04 34.22 235.76 34.84 235.85 41.94 194.38 39.69 194.04"/><path class="cls-74" d="M69,194.21l6.28,41.6Z"/><polygon class="cls-75" points="67.82 194.38 74.92 235.85 75.54 235.76 70.07 194.04 67.82 194.38"/><path class="cls-74" d="M58,194.21l6.28,41.6Z"/><polygon class="cls-75" points="56.84 194.38 63.93 235.85 64.56 235.76 59.09 194.04 56.84 194.38"/><path class="cls-76" d="M39.24,147H28.48c-6.15,0-8.71,4.78-8.2,11.74l7.35,35.32H56.19l-6.68-35.32C48.26,152.36,45.39,147,39.24,147Z"/><path class="cls-75" d="M29.52,147h-1c-6.15,0-8.71,4.78-8.2,11.74l7.35,35.32h2.51l-8.45-35.32C21,151.78,23.37,147,29.52,147Z"/><path class="cls-76" d="M71.84,195.47h-34a1.41,1.41,0,1,1,0-2.82h34a1.41,1.41,0,1,1,0,2.82Z"/><path class="cls-75" d="M44.16,195.47H29a1.41,1.41,0,0,1,0-2.82H44.16a1.41,1.41,0,0,1,0,2.82Z"/><path class="cls-89" d="M66.07,180.76l-16.25,9.61c-5.16-.9-10.38-4.05-8.44-12,.71-.43,28.37-15.1,36.31-16.81,2.51-.58,3.79.23,4.33,1.72Z"/><path class="cls-90" d="M33.41,168.6c-.47-4.4-2.39-13.37,2-23.76,1.68-4,9.17-6,12.68-6a16.74,16.74,0,0,1,3.46,1.93c4.88-.33,11.27.54,17.17,1.11,1.87-3.12,6.54-5.48,13.17-15.83l2.27,2.24c-6.16,12.18-8,16-12.14,18.82-2.4,1.64-10,2-16.68,1.49a54.06,54.06,0,0,1,.59,8.7c0,5.8-.6,25.06-2,28.6l-22.5.24C31.22,178.14,33.94,173.69,33.41,168.6Z"/><polygon class="cls-77" points="80.85 226.06 81.31 229.86 76.81 229.86 76.22 226.06 80.85 226.06"/><path class="cls-91" d="M88.37,233.52c-1.45-.19-6.28-2.17-6.91-4.88H75.89c-.52,2.13-1.47,4.62-1.47,7.17h3.32l.68-1.76,2.71,1.76H92C92,233.28,89.3,233.64,88.37,233.52Z"/><path class="cls-92" d="M32.35,178c.82,0,33.86.83,41.61,3.26,3.73,1.76,3.82,7.26,4.29,11.35,1.5,9.91,2.8,27.37,3.19,34.66H76.2c-4.13-10.68-9.92-26-9.32-34.66H32.64C28.59,189.28,30.75,182.72,32.35,178Z"/><polygon class="cls-77" points="64.53 202.14 63.32 205.28 66.73 208.46 68.56 203.69 64.53 202.14"/><path class="cls-93" d="M68.53,216.58c-.82-1.21-2.57-6.14-1-8.41L63.86,204c-1.92,1-4.42,2-6.32,3.67l2.2,2.48,1.77-.66.49,3.19,7.23,8.11C71.11,219.12,69.05,217.35,68.53,216.58Z"/><path class="cls-94" d="M82,163.29c.76,3.4.52,8-.35,10.29-3.71,9.7-10.74,25.6-13.39,32.55l-4.4-2.85c.59-7.92,1.41-18,3-26.27Z"/><path class="cls-77" d="M48.61,130.44l4.6,2.17c-.5,3-.66,6.89-2.33,10l-5.63-3.23C46.8,135.22,47.47,135.9,48.61,130.44Z"/><path class="cls-77" d="M55.75,129.69c.09,1.81,1,5.59-1.5,6.26-1.41.38-3.52-.28-4.82-.7a6.63,6.63,0,0,1-4.38-5.7,5.45,5.45,0,0,1,2.2-5.26C50.59,121.73,55.38,121.86,55.75,129.69Z"/><path class="cls-95" d="M43.36,123.81A5,5,0,0,1,46,121c5.09-2.44,7.57,0,7.75,2.85-1.51.93-4.48.46-5.18,2.55a2.59,2.59,0,0,0-.11,1.21c.73,2,2.53,3.22,2.64,5.32,1.75-1.29,3.39-2.16,4.78-2,.84.17.83,1.8.8,3.48a2.09,2.09,0,0,1-1.51,2,11.91,11.91,0,0,1-2.27.39,3.68,3.68,0,0,1-2.85-1.2c-.48-2.34-.81-4.76-2-5.33a1.5,1.5,0,0,0-.72,0c-1,.39-.6,1.3.08,1.68a2.34,2.34,0,0,1,1.08,2,5.54,5.54,0,0,1-1.28,2.58c-.84-.33-1.81-.59-1.93-1.39-.32-2.08-1.55-4-2.36-5.84C42.21,127.58,41.35,125.08,43.36,123.81Z"/><path class="cls-77" d="M85.29,127.93a13.28,13.28,0,0,0,1.18-2.9,22,22,0,0,1,2.77-5c.12-.17.24-.41.12-.55s-.42,0-.6.1a7.74,7.74,0,0,0-1.82,1.88c-.19.27-.43.61-.75.58a6,6,0,0,1,.65-1.38c.41-.67.81-1.35,1.21-2a1,1,0,0,0,.17-.45.73.73,0,0,0-.14-.38,9,9,0,0,0-.57-.77.41.41,0,0,0-.21-.16A.5.5,0,0,0,87,117a8.82,8.82,0,0,0-2.61,3.24c.5-1.06,1-2.12,1.52-3.17.12-.27.24-.61,0-.8a.49.49,0,0,0-.6,0,1.81,1.81,0,0,0-.43.52,36.92,36.92,0,0,0-3.5,7.35,1.26,1.26,0,0,1-.38-.73c-.15-.55-.29-1.1-.44-1.65a1.46,1.46,0,0,0-.49-.91.64.64,0,0,0-.93.27.93.93,0,0,0,.08.57c.51,1.54-.49,3.35-.33,5C79.22,129.55,83.48,130.7,85.29,127.93Z"/><path class="cls-77" d="M77.41,169.85c.53.58,2.09,1.2,2.08,1.53,0,.75-1.42.3-1.79.14-.84-.35-1.39-1.25-2.38-1-.69.2-2.51,1.42-3,.51a2.94,2.94,0,0,1,.14-3.09c1.68-.62,3.39-1.86,4.14-2,.92-.16,5.28,1.85,6.52,4.17.23.43.22.64-.24.89C82.2,171.4,79,169.6,77.41,169.85Z"/><path class="cls-96" d="M43.45,145.38c3.13,2.06,4.93,8.46,9,19.76,5.07.84,13.5,2.41,20.14,2.69l0,3.51c-7,2.39-20.3,2.64-24.8.68C42,164.87,34.46,154.26,34.85,148,35.62,145.67,40.16,143.23,43.45,145.38Z"/><polygon class="cls-60" points="49.42 235.69 47.53 235.69 57.92 174.77 59.81 174.77 49.42 235.69"/><polygon class="cls-75" points="59.17 178.53 57.5 177.27 57.92 174.77 59.81 174.77 59.17 178.53"/><polygon class="cls-60" points="171.01 235.69 172.9 235.69 162.51 174.77 160.62 174.77 171.01 235.69"/><polygon class="cls-75" points="161.26 178.53 162.94 177.27 162.51 174.77 160.62 174.77 161.26 178.53"/><path class="cls-60" d="M180.05,174.77H40.38a1.41,1.41,0,0,1,0-2.82H180.05a1.41,1.41,0,0,1,0,2.82Z"/><path class="cls-75" d="M89.08,172H65.75a1,1,0,0,1-.94-1.3l4.44-16.14a1.84,1.84,0,0,1,1.65-1.29H94.23a1,1,0,0,1,.94,1.29l-4.44,16.14A1.82,1.82,0,0,1,89.08,172Z"/><path class="cls-75" d="M84.58,172H56.33a.91.91,0,1,1,0-1.81H84.58a.91.91,0,0,1,0,1.81Z"/><path class="cls-60" d="M90.82,172H67.49a1,1,0,0,1-.94-1.3L71,154.52a1.83,1.83,0,0,1,1.65-1.29H96a1,1,0,0,1,.94,1.29l-4.44,16.14A1.83,1.83,0,0,1,90.82,172Z"/><path class="cls-76" d="M83,160.29l.09.35a.7.7,0,0,0,.59.52l.37.05c.75.12.82,1.07.13,1.61l-.35.28a1.24,1.24,0,0,0-.48.83l0,.39a1.19,1.19,0,0,1-1.61,1l-.3-.19a1,1,0,0,0-.88,0l-.4.19c-.78.36-1.44-.23-1.12-1l.16-.39a.81.81,0,0,0-.07-.83l-.21-.28c-.43-.54.12-1.49.92-1.61l.4-.05a1.33,1.33,0,0,0,.84-.52l.26-.35C81.86,159.58,82.86,159.58,83,160.29Z"/><path class="cls-97" d="M161.52,166.37H139.78v.92h1.62V171h-1.62V172h21.74a2.79,2.79,0,0,0,0-5.58Z"/><path class="cls-98" d="M154.87,171H141V167.3h13.92a1.87,1.87,0,0,1,0,3.73Z"/><path class="cls-99" d="M145.63,160.8h21.74v.91h-1.62v3.75h1.62v.91H145.63a2.79,2.79,0,1,1,0-5.57Z"/><path class="cls-98" d="M152.28,165.45h13.84v-3.73H152.28a1.87,1.87,0,0,0,0,3.73Z"/><path class="cls-74" d="M439,194.21l6.28,41.6Z"/><polygon class="cls-75" points="440.13 194.04 445.6 235.76 444.97 235.85 437.88 194.38 440.13 194.04"/><path class="cls-74" d="M428,194.21l6.28,41.6Z"/><polygon class="cls-75" points="429.15 194.04 434.61 235.76 433.99 235.85 426.89 194.38 429.15 194.04"/><path class="cls-74" d="M399.89,194.21l-6.28,41.6Z"/><polygon class="cls-75" points="401.02 194.38 393.92 235.85 393.3 235.76 398.76 194.04 401.02 194.38"/><path class="cls-74" d="M410.87,194.21l-6.28,41.6Z"/><polygon class="cls-75" points="412 194.38 404.9 235.85 404.28 235.76 409.75 194.04 412 194.38"/><path class="cls-76" d="M429.6,147h10.75c6.16,0,8.71,4.78,8.21,11.74l-7.35,35.32H412.65l6.68-35.32C420.57,152.36,423.44,147,429.6,147Z"/><path class="cls-75" d="M439.31,147h1c6.16,0,8.71,4.78,8.21,11.74l-7.35,35.32H438.7l8.45-35.32C447.87,151.78,445.47,147,439.31,147Z"/><path class="cls-76" d="M397,195.47h34a1.41,1.41,0,0,0,0-2.82H397a1.41,1.41,0,0,0,0,2.82Z"/><path class="cls-75" d="M424.68,195.47H439.8a1.41,1.41,0,0,0,0-2.82H424.68a1.41,1.41,0,0,0,0,2.82Z"/><path class="cls-74" d="M367.23,194.21l6.28,41.6Z"/><polygon class="cls-75" points="368.36 194.04 373.82 235.76 373.2 235.85 366.11 194.38 368.36 194.04"/><path class="cls-74" d="M356.25,194.21l6.28,41.6Z"/><polygon class="cls-75" points="357.37 194.04 362.84 235.76 362.22 235.85 355.12 194.38 357.37 194.04"/><path class="cls-74" d="M328.12,194.21l-6.28,41.6Z"/><polygon class="cls-75" points="329.24 194.38 322.15 235.85 321.53 235.76 326.99 194.04 329.24 194.38"/><path class="cls-74" d="M339.1,194.21l-6.28,41.6Z"/><polygon class="cls-75" points="340.23 194.38 333.13 235.85 332.51 235.76 337.98 194.04 340.23 194.38"/><path class="cls-76" d="M357.82,147h10.76c6.15,0,8.71,4.78,8.2,11.74l-7.34,35.32H340.88l6.68-35.32C348.8,152.36,351.67,147,357.82,147Z"/><path class="cls-75" d="M367.54,147h1c6.15,0,8.71,4.78,8.2,11.74l-7.34,35.32h-2.51l8.45-35.32C376.1,151.78,373.7,147,367.54,147Z"/><path class="cls-76" d="M325.23,195.47h34a1.41,1.41,0,1,0,0-2.82h-34a1.41,1.41,0,0,0,0,2.82Z"/><path class="cls-75" d="M352.91,195.47H368a1.41,1.41,0,1,0,0-2.82H352.91a1.41,1.41,0,0,0,0,2.82Z"/><polygon class="cls-77" points="341.67 222.1 343.61 226.95 339.88 229.37 337.95 224.28 341.67 222.1"/><path class="cls-100" d="M366.4,178.25c-1.31,0-32.32.88-44.63,3-3.82.67-8.87,2.2-3.83,12,3.57,7,15.19,26.05,20.51,32.86l4.3-2.22c-3.49-9.73-8-24.33-13.5-31.3h33.47C369.12,189.33,369.91,182.24,366.4,178.25Z"/><polygon class="cls-77" points="324.76 224.74 323.55 230.5 327.74 230.67 329.33 225.1 324.76 224.74"/><polygon class="cls-101" points="343.31 178.03 342.3 186.69 364.43 183.26 367.57 178.03 343.31 178.03"/><path class="cls-102" d="M329,192.65c.67-4.1,1.06-9.59,4.88-11.36,7.76-2.42,32.89-3.28,33.72-3.26,1.6,4.73,1.31,11.3-2.74,14.62H340.31c.11,8.67-6.53,24-11.26,34.65h-5.23C324.61,220,326.89,202.55,329,192.65Z"/><path class="cls-103" d="M343.76,226.05l-4.57,3c1.36,3.69-1.29,4.31-2.68,4.5-.91.12-3.56-.24-3.56,2.25h8.73a4.6,4.6,0,0,0,2.93-3.95l1.51,1.07,2.72-1.79C347.47,229.05,345.34,227.51,343.76,226.05Z"/><path class="cls-103" d="M318.71,233.37a6.21,6.21,0,0,0,4.4-4.61h5.47a30,30,0,0,1,1.08,7.05h-3.27l-.67-1.73-1.46,1.73h-8.18C316.08,233.32,317.8,233.5,318.71,233.37Z"/><path class="cls-104" d="M367.82,175.84c-1.64-7.7-7.23-32.36-8.18-33.79-4.71-7.06-12.82-7.4-15.47-7.64-2.37-.22-4.52,1.94-6,4.53a11.57,11.57,0,0,0-2.06,3c-1.81,3.72-2.82,6.62-1.73,22.13-4.68.85-11.2,2.32-17.89,2.53-.91,0-3.5-.36-3.84.8-.51,1.76,3.32,3.14,4.34,3.48,6.2,2,17.84,2.79,22.35-1.51.89-.85,2-3.37,3-6.8a42.79,42.79,0,0,1,2,5s-1.16,6.4-1.34,10.05c0,.16,0,.45.26.45h24.27C368,178,368.07,177,367.82,175.84Z"/><path class="cls-105" d="M330.44,160.35c.62-1,3,0,3.93.16,6.27,1.38,12.7,1.58,17.4,1.87-5.22-12.52-5.2-15.5-4.74-19.39.32-2.6,5.3-4.68,7.9-1,5.23,8.88,4.42,13,4.87,22.23a6.07,6.07,0,0,1-4.19,5.65c-5.69,1.57-16.64-1.83-21.81-5.09C332.89,164.2,329.52,161.93,330.44,160.35Z"/><path class="cls-77" d="M326.19,156.49a1,1,0,0,0,.15-.28L322,153.64l.11-.7,5.2,1.77a6.68,6.68,0,0,1,2.88,2.29c.47.54,2.92,2.83,3.08,3.58.27,1.23,0,2.49-.84,2.92-1.58.8-3.92-.45-5.07-1.53-.82-.76-2.67-3.29-2.76-.83-1.73.16-.91-2.46-.3-3.13S325.76,157.1,326.19,156.49Z"/><path class="cls-77" d="M308.76,165.87a10,10,0,0,1,6.72.3,2.9,2.9,0,0,1,1.75,2.29c.14,1.43-.32,1.39-1.49,1.93-.63.28-1.45.71-2.33,1.06l-1-.88.16,0c-.59-1.35-2-2.52-3.14-2.27s-3,1.56-4.32,1.81c-.41.12-.52-.37-.56-.52C306.23,168.72,307,166.6,308.76,165.87Z"/><path class="cls-77" d="M309.42,171.6c.31-1,2.22-.89,3.12-1.07l.87.92C312,172,310.47,172.38,309.42,171.6Z"/><path class="cls-77" d="M337.64,131a4.83,4.83,0,0,1-.17-2.22h5a17.4,17.4,0,0,0,4.22,5.87,8.14,8.14,0,0,0,.87.68c-.68,1.5-2.64,2.79-6.15,3.82a16.15,16.15,0,0,1-1.5-2.44A31.79,31.79,0,0,1,337.64,131Z"/><path class="cls-77" d="M347.44,125.06c-1.34,5.53-3.29,5.95-6.17,7.68-1.34.81-4,1.8-5.42.87-1.65-1.08-.73-4.71-.63-6.36.2-3.12-.27-7.66,3.55-8.6S348.78,119.59,347.44,125.06Z"/><path class="cls-106" d="M344.27,126c.53.23.5,1.33.37,1.78-.33,1.11-1.58,1.5-1.43,2.79a3.55,3.55,0,0,0,1.13,2c.42.4,1.49,1,1.52,0,0-.38-.33-.7-.32-1.09,0-1.07,6.13-6.1,4.08-9.8a4,4,0,0,0-2.25-1.45c-.75-1.23-1.31-3.4-5.52-3.62-2.5-.12-3.3,1.75-6.88,1.22-.45-.07-.82-.18-1.1.25-.7,1.1,0,4.89,6,4.86,1.33,0,1.58.24,1.87,1.45a7.67,7.67,0,0,1-.57,3.48C342.76,128.58,343,125.46,344.27,126Z"/><polygon class="cls-107" points="411.99 222.1 414.94 226.68 411.72 228.97 408.36 224.39 411.99 222.1"/><path class="cls-108" d="M436.72,178.25c-1.31,0-32.32.88-44.63,3-3.81.67-8.86,2.2-3.83,12,3.57,7,15.19,26.05,20.51,32.86l4.06-3.31c-3.49-9.73-7.74-23.24-13.26-30.21H433C439.44,189.33,440.23,182.24,436.72,178.25Z"/><polygon class="cls-109" points="413.63 178.03 412.62 186.69 434.75 183.26 437.89 178.03 413.63 178.03"/><polygon class="cls-107" points="423.87 222.4 425.17 227.69 421.38 228.81 419.69 223.38 423.87 222.4"/><path class="cls-110" d="M437.91,178c-.83,0-26,.84-33.72,3.26-3.45,5.2,12.71,38.24,15.43,44l4.79-1.77c-1.27-9.37-3.26-22.49-6.36-30.84h17.12C439.22,189.33,439.51,182.76,437.91,178Z"/><path class="cls-111" d="M414.75,225.9l-4.14,2.72c1.36,3.69-2,4.75-3.35,4.94-.91.12-3.56-.24-3.56,2.25h8.74a4.59,4.59,0,0,0,2.92-3.95l1.51,1.07,2.06-1.36A31.32,31.32,0,0,0,414.75,225.9Z"/><path class="cls-112" d="M425.16,226.28l-4.42,1.47a4.27,4.27,0,0,1-3.24,5.81c-.91.12-3.56-.24-3.56,2.25h8.74a4.59,4.59,0,0,0,2.92-3.95l1.51,1.07,2.06-1.36A27.16,27.16,0,0,0,425.16,226.28Z"/><path class="cls-113" d="M438.59,178c-.3-1.81-7.45-34.39-8.63-36-3.51-4.73-12.64-7.06-15.3-7.06-2.46,0-4.68,1.77-6.16,4.08-.06.07-.13.14-.18.21-2.69,3.25-4.37,5.89-7.06,22.1-4.6,1-10.83,2.54-17.24,2.92-.92,0-3.51-.26-3.82.92-.46,1.77,3.37,3.17,4.44,3.34,14.22,2.36,21.18-.78,23.69-5.85q1.2-2.13,2.33-4.36c2,4.69,3.92,8.28,4,9.18a99.42,99.42,0,0,0-1.36,10.5Z"/><path class="cls-107" d="M409.6,128.77h6.46c.26,2,1.7,7.25,1.7,7.26-.37,1.06-3,2.09-6,3.11C411.61,135.89,409.41,131.39,409.6,128.77Z"/><path class="cls-107" d="M419.28,124.38c-1.43,5.52-3.38,5.91-6.28,7.59-1.36.78-4,1.74-5.44.79-1.64-1.11-.65-4.73-.53-6.37.24-3.12-.15-7.67,3.68-8.55S420.71,118.93,419.28,124.38Z"/><path class="cls-114" d="M424.24,123.71c.18-.7-.24-2.34-2.35-2.4,1.4-.54,2.92-1.77,2.42-2.85-.57-1.25-3.66-1.27-5-.81.58-.3,2.53-2,1.42-2.89-1.29-1-4.07.17-5.66,1.41.38-.66.85-1.6.3-2.12-1-.93-4.43.85-5.36,1.83.14-.27.13-1.48-.17-1.56a1,1,0,0,0-.82.33,7.09,7.09,0,0,0-2.12,3c-.72,2.17-.64,4.68,1,4.41,6.15-1.07,6.59,4.27,6.73,4.85.7-.66,1-1.43,1.43-1.22,1.36.65-.59,4.39.51,7C417.27,129,423.63,126.07,424.24,123.71Z"/><path class="cls-107" d="M383.08,160.74c-.59.41-1.67,1.32-1.67,1.33-.36.56.79.68,1.42.47s1,.12.88.66c-.07.32-5.28-1-5.08.49.26,1.87,1.13,4.73,2.46,5.16a6.07,6.07,0,0,0,4,0,4.42,4.42,0,0,0,1.75-3.85C386.73,164.23,385,159.89,383.08,160.74Z"/><polygon class="cls-75" points="376.98 168.17 376.81 169.09 377.66 168.63 384.76 158.31 384.08 157.85 376.98 168.17"/><path class="cls-107" d="M379.66,163a9.15,9.15,0,0,0,1.51,1.2c.22.18.9.76.65,1.12-.11.17-.53.12-.71.13a3.71,3.71,0,0,1-2.19-.46,1.34,1.34,0,0,1-.46-1.89C378.61,162.91,379.62,163,379.66,163Z"/><path class="cls-107" d="M403.37,169.25a16.77,16.77,0,0,0-2,2.21,17.75,17.75,0,0,0-1.46,1.9c-.18.32-.14.53.28.62a2.5,2.5,0,0,0,1.75-.64,9.45,9.45,0,0,1,1.9-1,2.34,2.34,0,0,0-.4.56c-.49,1,.11.82.74.4a9.44,9.44,0,0,1,1.9-1.19c1.82-.73,3.86.34,5.5-.58C415.36,169.46,406.8,165.86,403.37,169.25Z"/><path class="cls-115" d="M426.29,139.51c-3.7-3.4-6.43,1.28-7.33,3.75-1.41,3.83-2.11,6.81.46,21.69a88.42,88.42,0,0,0-9,2.84l.66,4.29c3.38-.35,14.15,1.74,15.43-5.24C428.2,157.76,429.35,149.35,426.29,139.51Z"/><path class="cls-116" d="M381.47,166a7.14,7.14,0,0,1-1.84-.31.32.32,0,0,1-.19-.4.32.32,0,0,1,.41-.19,4.4,4.4,0,0,0,2.12.2.54.54,0,0,0,0-.08,2.73,2.73,0,0,0-1.09-.88.31.31,0,0,1-.22-.38.31.31,0,0,1,.38-.22,3.17,3.17,0,0,1,1.5,1.2.65.65,0,0,1-.06.77A1.29,1.29,0,0,1,381.47,166Z"/><path class="cls-116" d="M383,169.44a.31.31,0,0,1-.22-.09.33.33,0,0,1,0-.45s0,0,0-.08a2,2,0,0,0-.41-.57,3.26,3.26,0,0,1-.43-.55,1.59,1.59,0,0,1-.21-.75,2.33,2.33,0,0,0,0-.34c0-.13-.16-.23-.43-.34a.31.31,0,0,1-.18-.4.32.32,0,0,1,.41-.18,1.22,1.22,0,0,1,.81.75,2.57,2.57,0,0,1,.07.46,1.14,1.14,0,0,0,.12.49,5.58,5.58,0,0,0,.35.44,2.44,2.44,0,0,1,.54.77.73.73,0,0,1-.14.75A.35.35,0,0,1,383,169.44Z"/><polygon class="cls-60" points="450.53 235.69 452.41 235.69 442.02 174.77 440.14 174.77 450.53 235.69"/><polygon class="cls-75" points="440.78 178.53 442.45 177.27 442.02 174.77 440.14 174.77 440.78 178.53"/><polygon class="cls-60" points="302.16 235.69 300.28 235.69 310.67 174.77 312.55 174.77 302.16 235.69"/><polygon class="cls-75" points="311.91 178.53 310.24 177.27 310.67 174.77 312.55 174.77 311.91 178.53"/><path class="cls-60" d="M293.13,174.77H459.56a1.41,1.41,0,1,0,0-2.82H293.13a1.41,1.41,0,1,0,0,2.82Z"/><path class="cls-75" d="M298.5,172h23.33a1,1,0,0,0,.94-1.3l-4.44-16.14a1.82,1.82,0,0,0-1.65-1.29H293.35a1,1,0,0,0-.93,1.29l4.43,16.14A1.83,1.83,0,0,0,298.5,172Z"/><path class="cls-75" d="M303,172h28.25a.91.91,0,0,0,0-1.81H303a.91.91,0,1,0,0,1.81Z"/><path class="cls-60" d="M296.76,172H320.1a1,1,0,0,0,.93-1.3l-4.44-16.14a1.81,1.81,0,0,0-1.64-1.29H291.61a1,1,0,0,0-.93,1.29l4.44,16.14A1.81,1.81,0,0,0,296.76,172Z"/><path class="cls-76" d="M304.55,160.29l-.09.35a.68.68,0,0,1-.58.52l-.38.05c-.74.12-.82,1.07-.13,1.61l.36.28a1.23,1.23,0,0,1,.47.83l0,.39a1.19,1.19,0,0,0,1.61,1l.31-.19a1,1,0,0,1,.88,0l.39.19c.78.36,1.45-.23,1.13-1l-.17-.39a.84.84,0,0,1,.07-.83l.22-.28c.42-.54-.12-1.49-.92-1.61l-.41-.05a1.33,1.33,0,0,1-.84-.52l-.26-.35C305.72,159.58,304.72,159.58,304.55,160.29Z"/><path class="cls-75" d="M373.84,172h23.34a1,1,0,0,0,.93-1.3l-4.43-16.14a1.84,1.84,0,0,0-1.65-1.29H368.7a1,1,0,0,0-.94,1.29l4.44,16.14A1.81,1.81,0,0,0,373.84,172Z"/><path class="cls-75" d="M378.35,172H406.6a.91.91,0,0,0,0-1.81H378.35a.91.91,0,0,0,0,1.81Z"/><path class="cls-60" d="M372.11,172h23.33a1,1,0,0,0,.94-1.3l-4.44-16.14a1.84,1.84,0,0,0-1.65-1.29H367a1,1,0,0,0-.94,1.29l4.44,16.14A1.82,1.82,0,0,0,372.11,172Z"/><path class="cls-76" d="M379.89,160.29l-.08.35a.7.7,0,0,1-.59.52l-.37.05c-.75.12-.83,1.07-.13,1.61l.35.28a1.28,1.28,0,0,1,.48.83l0,.39a1.2,1.2,0,0,0,1.62,1l.3-.19a1,1,0,0,1,.88,0l.4.19c.78.36,1.44-.23,1.12-1l-.16-.39a.84.84,0,0,1,.06-.83l.22-.28c.43-.54-.12-1.49-.92-1.61l-.4-.05a1.31,1.31,0,0,1-.84-.52l-.26-.35C381.07,159.58,380.07,159.58,379.89,160.29Z"/><path class="cls-117" d="M187,76.81,182.26,72a.52.52,0,0,1,0-.73.5.5,0,0,1,.73,0l4.78,4.77a.53.53,0,0,1,0,.74A.52.52,0,0,1,187,76.81Z"/><path class="cls-117" d="M182.26,76.07,187,71.3a.5.5,0,0,1,.73,0,.52.52,0,0,1,0,.73L183,76.81a.52.52,0,0,1-.73,0A.53.53,0,0,1,182.26,76.07Z"/><path class="cls-118" d="M351.38,194.68l-4.78-4.77a.52.52,0,0,1,0-.73.5.5,0,0,1,.73,0l4.78,4.77a.52.52,0,0,1,0,.73A.5.5,0,0,1,351.38,194.68Z"/><path class="cls-118" d="M346.6,194l4.78-4.77a.5.5,0,0,1,.73,0,.52.52,0,0,1,0,.73l-4.78,4.77a.5.5,0,0,1-.73,0A.52.52,0,0,1,346.6,194Z"/><path class="cls-117" d="M297.14,141.86V135.1a.52.52,0,0,1,.52-.52.53.53,0,0,1,.52.52v6.76a.53.53,0,0,1-.52.52A.52.52,0,0,1,297.14,141.86Z"/><path class="cls-117" d="M294.28,138H301a.52.52,0,0,1,0,1h-6.76a.52.52,0,0,1,0-1Z"/><path class="cls-117" d="M152.05,144.81a3.72,3.72,0,1,1,3.71-3.71A3.72,3.72,0,0,1,152.05,144.81Zm0-5.77a2.06,2.06,0,1,0,2,2.06A2.06,2.06,0,0,0,152.05,139Z"/><path class="cls-117" d="M237.25,63.63A3.72,3.72,0,1,1,241,59.91,3.72,3.72,0,0,1,237.25,63.63Zm0-5.77a2.06,2.06,0,1,0,2.05,2A2.05,2.05,0,0,0,237.25,57.86Z"/><path class="cls-119" d="M317.93,98.34a3.72,3.72,0,1,1,3.71-3.71A3.72,3.72,0,0,1,317.93,98.34Zm0-5.77A2.06,2.06,0,1,0,320,94.63,2.06,2.06,0,0,0,317.93,92.57Z"/><rect class="cls-120" x="294.78" y="100.47" width="69.66" height="3.91"/><rect class="cls-121" x="322.13" y="71.64" width="4.88" height="28.84"/><rect class="cls-122" x="329.55" y="75.03" width="4.88" height="25.45"/><rect class="cls-123" x="301.42" y="84.82" width="25.45" height="4.88" transform="translate(116.58 346.62) rotate(-68.23)"/><rect class="cls-124" x="294.85" y="84.82" width="25.45" height="4.88" transform="translate(112.45 340.51) rotate(-68.23)"/><rect class="cls-125" x="336.73" y="95.6" width="24.53" height="4.38"/><path class="cls-126" d="M145.19,116.93h14.87l-6.15,7.44,13.27-7.44h4.17a1.31,1.31,0,0,0,1.31-1.3V98.77a1.31,1.31,0,0,0-1.31-1.31H145.19a1.31,1.31,0,0,0-1.31,1.31v16.86A1.3,1.3,0,0,0,145.19,116.93Z"/><path class="cls-60" d="M162.51,105.05c0,2.18-2.74,2.83-2.74,3.68v.33H157v-.8c0-1.17,2.08-1.84,2.08-3.14a1,1,0,0,0-1.06-1.12c-.86,0-1,.67-1,1.34a3.24,3.24,0,0,0,0,.44h-2.95c0-.21-.05-.41-.05-.61,0-2.09,1.86-3.39,4.38-3.39S162.51,103.07,162.51,105.05Zm-2.5,8h-3.18v-3H160Z"/></svg>